<svg width="201" height="69" viewBox="0 0 201 69" fill="none" xmlns="http://www.w3.org/2000/svg">
<g id="Warstwa_1" clip-path="url(#clip0_48_284)">
<path id="Vector" d="M46.8515 25.3375C45.5663 27.2737 44.1998 29.4588 42.7114 31.5627C41.6175 33.1125 40.43 34.594 39.1555 35.999C38.7136 36.5072 37.7738 36.9391 37.2506 36.7816C36.7273 36.6241 36.2651 35.6789 36.2346 35.0386C35.9196 31.0087 35.7266 26.9637 35.4777 22.7661C34.7817 24.1585 34.1671 25.5408 33.4457 26.8315C31.3224 30.5565 30.2149 34.8759 27.2381 38.0825C26.071 39.2883 24.6826 40.258 23.1489 40.9385C22.7686 41.1234 22.3528 41.2231 21.9301 41.2309C21.5074 41.2387 21.0881 41.1543 20.7014 40.9836C20.3146 40.8129 19.9697 40.5599 19.6905 40.2424C19.4114 39.9248 19.2047 39.5502 19.085 39.1446C18.3674 37.1136 18.1149 34.9473 18.3461 32.8056C18.5774 30.6639 19.2864 28.6015 20.421 26.7706C21.2744 25.3223 21.6706 25.3324 23.2047 26.5165C20.4819 27.6345 19.9435 30.0432 19.8012 32.5231C19.7053 34.0907 19.8771 35.6631 20.3092 37.1729C20.7766 38.7584 22.204 39.2056 23.4638 38.1334C24.8815 36.9688 26.0849 35.5655 27.0197 33.9866C29.3615 29.7485 31.424 25.3477 33.6693 21.0587C34.2976 19.9487 35.0199 18.8946 35.8282 17.908C36.4124 17.1254 37.3776 17.349 37.5198 18.3145C37.7839 20.8554 38.0278 23.3963 38.17 25.9372C38.2767 28.1934 38.17 30.4599 38.17 32.7213L38.6069 32.8585C39.7803 31.2018 40.969 29.5554 42.1221 27.8835C43.956 25.2206 45.7441 22.5273 47.6135 19.895C48.3247 19.1073 49.4422 19.092 49.4829 20.3625C49.4371 23.5538 49.3101 26.7401 49.2492 29.9314C49.2136 31.6745 49.2492 33.4226 49.2492 35.5213C50.3007 34.073 51.2049 32.8534 52.0787 31.6135C53.8922 29.0726 55.6346 26.4402 57.5192 23.9349C58.5922 22.5716 59.7493 21.2766 60.9837 20.0576C61.9438 18.8532 63.229 19.341 63.5947 20.642C63.9402 22.258 64.1027 23.9197 64.311 25.5662C64.6513 28.1985 64.9612 30.836 65.327 33.4683C65.4079 34.509 65.6266 35.5342 65.9772 36.5174C66.5817 37.9301 67.2776 38.1638 68.4409 37.1932C70.5338 35.4553 72.4591 33.5191 74.4453 31.6643C74.5164 31.6033 74.5367 31.4915 74.6129 31.4407C76.7719 30.0381 76.5077 28.1884 75.6289 26.1811C75.0752 24.9106 74.6587 23.5792 74.105 22.3088C73.3328 20.9316 75.1971 18.3755 76.1877 20.4031C76.8887 22.8322 77.5034 25.2816 78.2654 28.1833C87.3786 19.2445 95.6842 9.96521 104.564 1.09755L105.803 2.20539L102.522 5.72195C104.046 7.93251 104.046 7.94776 101.887 10.0973C97.3707 14.5947 92.8293 19.0615 88.3184 23.5589C85.9359 25.9372 83.6195 28.3815 81.2066 30.7292C80.9356 30.9391 80.7536 31.2435 80.6971 31.5817C80.6406 31.9199 80.7137 32.267 80.9018 32.5536C82.0956 35.1402 84.8438 36.1108 87.1196 34.2915C89.1515 32.6756 90.7415 30.531 92.4687 28.5695C92.7106 28.1725 92.8025 27.702 92.7277 27.2432C92.6414 26.2268 93.1646 25.7644 94.0536 25.6424C94.9425 25.5205 95.5064 25.744 95.227 26.8773C94.6327 29.3165 94.1806 31.7913 94.9273 34.2763C95.1254 34.9166 95.5318 35.8669 95.989 35.9685C96.6748 36.1159 97.8432 35.8771 98.1987 35.374C99.7775 33.113 101.239 30.7723 102.578 28.3612C103.858 26.0744 104.919 23.6605 106.159 21.3534C106.931 20.0728 108.069 20.5454 108.506 21.7701C109.598 24.3618 110.619 26.9789 111.798 29.9009C112.351 29.1234 112.707 28.6305 113.057 28.1325C114.581 25.9473 116.105 23.7317 117.68 21.5923C118.427 20.5759 119.204 20.7487 119.529 21.9734C119.854 23.1981 119.956 24.4126 120.174 25.6373C120.606 28.0359 121.017 30.4345 121.495 32.8229C121.8 34.3475 123.161 34.7946 124.614 33.8952C126.067 32.9957 127.342 32.0505 128.795 31.3086C129.989 30.7038 130.044 29.9822 129.948 28.7423C129.712 26.6057 129.796 24.446 130.197 22.3342C130.796 19.6815 135.277 19.5951 136.293 19.6205C137.969 19.6663 138.98 20.8757 139.849 22.1157C140.58 23.1778 139.925 24.0467 139.137 24.7684C137.613 26.1608 136.089 27.5328 134.565 28.91L133.504 29.9111C134.22 32.1725 136.044 32.7924 137.994 33.1786C143.765 34.3119 149.602 34.3017 155.454 34.2763C165.796 34.2204 176.139 34.2763 186.487 34.2763H187.965C188.473 30.9427 188.798 30.5819 191.12 30.6632C192.811 30.7242 193.284 31.4153 193.461 34.1747H195.554C195.93 33.1583 196.022 31.832 196.718 31.2832C197.414 30.7343 198.75 30.6734 199.766 30.8512C200.781 31.0291 201.32 32.828 200.888 33.9358C200.497 34.9522 199.72 35.4146 198.516 35.4146C182.331 35.3807 166.144 35.3807 149.952 35.4146C145.802 35.4146 141.657 35.4654 137.512 35.3384C135.764 35.2825 133.885 35.2368 132.61 33.6563C132.269 33.2396 131.985 32.7772 131.685 32.3554C129.303 33.8799 127.057 35.4858 124.67 36.8273C121.947 38.3519 119.407 36.9696 118.909 33.8545C118.716 32.6552 118.574 31.4509 118.366 30.2566C118.158 29.0624 117.904 27.9495 117.563 26.2776C116.446 28.0613 115.531 29.5452 114.591 31.0087C113.921 32.0251 113.255 33.0973 112.499 34.0578C111.869 34.8709 110.822 34.505 110.289 33.26C109.369 31.1002 108.506 28.91 107.622 26.7248C107.449 26.3081 107.297 25.8813 106.997 25.0834C106.205 26.6994 105.59 28.0461 104.899 29.3521C103.827 31.3848 102.715 33.3819 101.597 35.3841C101.419 35.7043 101.13 35.9584 100.932 36.2684C99.8649 37.8945 97.2031 38.9718 95.5013 38.362C93.7031 37.7167 92.616 35.7754 92.5957 33.448V32.2944C91.0717 33.5649 89.5477 34.6473 88.2371 35.9177C85.7937 38.2604 83.3503 38.2909 80.9475 35.9177C80.1602 35.1402 79.2407 34.4948 78.3162 33.7326L60.7805 51.5644C61.7776 51.9261 62.7954 52.2281 63.8284 52.469C64.0825 52.4997 64.3402 52.4752 64.5839 52.3971C64.8276 52.3191 65.0516 52.1893 65.2406 52.0167C70.0258 46.4725 76.2741 44.2823 83.3605 43.9672C84.9749 43.8133 86.5995 43.7963 88.2168 43.9164C91.3562 44.3128 94.5158 44.8006 97.2336 46.63C98.0977 47.2152 98.9116 47.8713 99.6668 48.5916C101.729 50.5836 103.731 52.6214 105.788 54.649C107.099 54.2374 108.658 53.7445 110.218 53.2668C112.676 52.5096 115.038 53.3329 117.33 53.9732C120.022 54.7304 122.521 56.1583 125.219 56.8952C131.65 58.6535 134.093 55.2131 135.886 53.282C139.879 48.9778 139.95 40.5218 140.016 37.3609H147.524C146 41.965 144.603 46.5538 142.952 51.0512C141.754 54.1986 139.489 56.8247 136.552 58.4705C134.599 59.6924 132.528 60.7139 130.37 61.5196C127.901 62.4332 125.19 62.4512 122.709 61.5704C119.61 60.4524 116.471 59.436 113.342 58.3994C111.051 57.6371 109.044 58.6484 107.012 59.4818C105.956 59.9137 104.894 60.3254 103.842 60.7675C102.791 61.2096 102.065 61.0419 101.557 59.8731C100.975 58.4847 100.277 57.1484 99.4687 55.8788C97.7196 53.0903 95.1083 50.9492 92.0318 49.7807C87.8886 48.2604 83.414 47.8779 79.0731 48.6729C74.5977 49.4555 71.2856 51.971 68.507 55.3402C68.1768 55.7365 67.6789 56.4226 67.3945 56.8647C65.7486 59.3039 65.8095 59.3395 63.5033 57.8404C61.197 56.3413 58.5606 56.4937 55.9698 56.824C55.5267 56.9524 55.1332 57.213 54.8421 57.571C52.1092 60.3965 49.427 63.2728 46.6635 66.0677C45.6062 67.0665 44.4918 68.0031 43.3261 68.8729C43.1534 69.005 42.6708 69.0558 42.6047 68.9643C42.4834 68.708 42.4342 68.4233 42.4625 68.1411C42.4625 67.7955 42.6708 67.2975 42.5133 67.1247C41.5938 66.1999 42.1831 65.5596 42.8282 64.9091C44.1287 63.6031 45.4444 62.3072 46.7397 60.9911C47.0547 60.6709 47.3188 60.2999 47.8167 59.7003C46.8972 59.9442 42.4727 60.986 34.609 61.423C24.1852 62.0074 -26.6135 47.4076 18.1553 -9.00619e-05C18.3027 -0.157624 21.1728 5.32557 20.2483 6.2911C-13.4414 41.655 19.0037 59.4056 45.9524 54.9895C48.6955 54.5372 51.1186 52.9568 53.7804 52.1387C56.4423 51.3205 58.1796 49.9738 59.9575 46.8333C61.2947 44.5304 63.2855 42.6768 65.6775 41.5076C66.5563 41.0655 66.9373 40.4913 67.5672 39.7239C65.0018 39.5054 64.184 38.7686 63.7319 36.2988C63.483 34.9369 63.3103 33.5598 63.102 32.1877C63.0942 31.9782 63.0433 31.7725 62.9524 31.5836C62.8616 31.3946 62.7327 31.2265 62.574 31.0896C62.4152 30.9527 62.23 30.8501 62.0297 30.7881C61.8295 30.7261 61.6187 30.706 61.4104 30.7292C59.602 30.7292 57.7427 30.4294 56.0156 30.8004C55.0555 31.0037 54.197 32.203 53.5214 33.1228C52.3682 34.6879 51.4437 36.4157 50.3312 38.0063C49.7244 38.8253 49.035 39.5797 48.2739 40.2575C47.5119 40.974 46.9023 40.6641 46.6077 39.7493C46.4654 39.2544 46.4087 38.7388 46.44 38.2248C46.5721 33.8901 46.7143 29.5198 46.8515 25.3375ZM58.1796 51.3916C58.5453 51.3357 58.9314 51.3916 59.094 51.229C65.3981 44.8413 71.9765 38.7127 77.8133 31.8828L58.1796 51.3916ZM79.4845 29.9111L79.83 30.1652C80.1144 29.8958 80.4141 29.657 80.6885 29.3572C86.344 23.5979 91.9929 17.847 97.6349 12.1046C97.8025 11.9369 97.7619 11.5609 97.8228 11.2865L97.4622 11.134C97.0101 11.6422 96.5834 12.1504 96.1109 12.623C90.855 17.9249 85.6058 23.2252 80.3633 28.5238C80.0193 28.9517 79.7245 29.4171 79.4845 29.9111ZM56.6252 28.8033H62.3197C62.1317 26.5927 61.9488 24.4736 61.771 22.3545L61.2631 22.3139L56.6252 28.8033ZM132.61 28.0308C134.093 25.7186 136.912 25.2359 137.786 22.6442C137.237 22.27 136.604 22.0379 135.944 21.9688C135.283 21.8996 134.616 21.9955 134.002 22.2478C132.62 22.8017 132.478 23.8943 132.6 25.1596C132.686 25.9626 132.63 26.7909 132.63 28.0156L132.61 28.0308ZM44.7281 66.2304L52.8559 57.8302C51.1795 58.0182 44.6062 64.5381 44.7535 66.2151L44.7281 66.2304Z" fill="black"/>
<path id="Vector_2" d="M94.7088 22.7662C94.1449 21.8617 93.4338 21.1909 93.5658 20.8199C93.7741 20.2304 94.5462 19.8341 95.0898 19.3615C95.4708 19.8696 96.1972 20.3778 96.1515 20.8453C96.0854 21.4094 95.4047 21.9125 94.7088 22.7662Z" fill="black"/>
</g>
<defs>
<clipPath id="clip0_48_284">
<rect width="201" height="69" fill="white"/>
</clipPath>
</defs>
</svg>
